<?xml version="1.0" encoding="UTF-8"?>
<svg xmlns="http://www.w3.org/2000/svg" xmlns:xlink="http://www.w3.org/1999/xlink" width="261.42pt" height="59.33pt" viewBox="0 0 261.42 59.33" version="1.1">
<defs>
<clipPath id="clip1">
  <path d="M 51 0 L 261.421875 0 L 261.421875 59.328125 L 51 59.328125 Z M 51 0 "/>
</clipPath>
</defs>
<g id="surface1">
<g clip-path="url(#clip1)" clip-rule="nonzero">
<path style=" stroke:none;fill-rule:nonzero;fill:rgb(21.568298%,34.901428%,53.72467%);fill-opacity:1;" d="M 211.316406 17.78125 C 210.078125 17.832031 207.183594 18.636719 206.660156 26.691406 C 206.140625 34.75 208.273438 36.835938 210.078125 37.070313 C 211.886719 37.308594 215.066406 34.417969 215.253906 25.839844 C 215.445313 17.261719 211.316406 17.78125 211.316406 17.78125 Z M 172.183594 42.558594 C 165.042969 48.726563 164.425781 53.132813 164.425781 53.132813 C 164.425781 53.132813 163.722656 56.746094 167.160156 56.921875 C 171.289063 57.339844 171.980469 52.324219 172.09375 47.933594 C 172.144531 45.859375 172.183594 42.558594 172.183594 42.558594 Z M 167.953125 17.535156 C 166.699219 17.582031 163.546875 18.679688 162.835938 26.476563 C 162.304688 34.640625 164.472656 36.753906 166.304688 36.992188 C 168.136719 37.234375 171.367188 34.304688 171.558594 25.613281 C 171.753906 16.921875 167.953125 17.535156 167.953125 17.535156 Z M 142.691406 17.496094 C 141.457031 17.542969 138.5625 18.351563 138.039063 26.40625 C 137.519531 34.464844 139.652344 36.546875 141.457031 36.785156 C 143.261719 37.023438 146.445313 34.132813 146.632813 25.554688 C 146.824219 16.976563 142.691406 17.496094 142.691406 17.496094 Z M 261.414063 31.199219 C 261.414063 40.351563 255.871094 40.203125 255.871094 40.203125 C 250.597656 40.390625 249.246094 34.816406 248.914063 29.148438 C 248.664063 24.886719 248.914063 20.144531 248.914063 20.144531 C 248.914063 20.144531 248.878906 19.925781 248.734375 20.144531 C 246.96875 23.347656 245.769531 28.207031 245.183594 31.96875 C 244.753906 34.699219 244.710938 36.984375 244.710938 36.984375 C 244.710938 36.984375 244.785156 37.496094 244.347656 37.789063 C 241.484375 39.105469 239.636719 37.238281 238.984375 35.152344 C 238.117188 33.175781 237.609375 21.28125 237.609375 20.65625 C 237.609375 20.035156 237.101563 20.511719 237.101563 20.511719 C 233.152344 27.136719 233.117188 36.871094 233.117188 38.851563 C 233.117188 40.828125 229.746094 40.203125 229.746094 40.203125 C 226.882813 39.984375 226.992188 38.59375 226.992188 38.59375 L 226.863281 36.230469 C 225.867188 38.066406 224.019531 40.449219 221.175781 40.265625 C 216.871094 39.988281 216.035156 35.53125 215.972656 34.777344 C 215.972656 34.777344 213.828125 40.328125 207.933594 40.265625 C 203.929688 40.203125 202.324219 36.0625 202.324219 36.0625 C 202.324219 36.0625 200.71875 40.390625 196.777344 40.234375 C 192.835938 40.078125 189.589844 35.53125 189.84375 29.636719 C 190.09375 23.738281 191.007813 20.792969 191.007813 20.792969 C 191.007813 20.792969 191.324219 20.195313 190.785156 20.164063 C 190.253906 20.132813 186.847656 20.226563 186.847656 20.226563 C 186.847656 20.226563 184.925781 27.941406 176.789063 37.535156 C 176.789063 37.535156 176.855469 40.535156 176.855469 43.871094 C 176.851563 50.175781 176.066406 58.640625 167.523438 59.328125 C 160.132813 58.832031 160.550781 53.132813 160.550781 53.132813 C 160.375 51.457031 161.429688 48.375 165.835938 44.234375 C 170.242188 40.089844 172.003906 38.503906 172.003906 38.503906 L 171.828125 35.863281 C 169.007813 40.53125 164.691406 40.265625 164.691406 40.265625 C 164.691406 40.265625 161.359375 40.945313 158.554688 35.984375 C 157.730469 37.683594 155.855469 40.582031 152.792969 40.246094 C 148.484375 39.769531 147.632813 35.472656 147.566406 34.714844 C 147.566406 34.714844 145.414063 40.308594 139.496094 40.246094 C 135.476563 40.183594 133.859375 36.011719 133.859375 36.011719 C 133.394531 35.167969 133.035156 33.886719 132.847656 33.128906 C 132.800781 33.285156 132.746094 33.453125 132.667969 33.648438 C 131.757813 35.980469 129.5 40.050781 126.035156 40.101563 C 119.671875 40.101563 119.402344 30.230469 119.402344 30.230469 C 117.5625 34.609375 113.957031 40.21875 107.246094 40.179688 C 100.539063 40.140625 99.734375 37.71875 99.734375 37.375 C 99.734375 37.027344 99.617188 36.644531 100.386719 35.53125 C 101.152344 34.417969 101.804688 33.957031 102.339844 33.957031 C 102.878906 33.957031 103.835938 34.761719 103.835938 34.761719 C 103.835938 34.761719 105.292969 36.183594 106.941406 36.183594 C 109.050781 36.105469 109.511719 34.417969 109.664063 32.6875 C 109.816406 30.960938 108.589844 29.117188 106.902344 27.578125 C 105.214844 26.042969 103.910156 24.890625 103.910156 24.890625 C 101.496094 28.960938 99.65625 31.726563 98.316406 34.109375 C 95.054688 39.410156 91.820313 40.230469 90.570313 40.0625 C 88.84375 39.832031 87.195313 38.066406 87.117188 32.917969 C 87.042969 27.769531 87.503906 18.972656 87.503906 18.511719 C 87.503906 18.050781 87.082031 18.28125 87.082031 18.28125 C 80.640625 25.121094 78.722656 39.179688 78.722656 39.449219 C 78.722656 39.71875 78.148438 40.023438 77.570313 40.023438 C 76.996094 40.023438 77.765625 39.988281 75.464844 39.910156 C 73.164063 39.832031 73.316406 35.453125 73.316406 35.453125 L 73.46875 14.519531 C 73.507813 13.824219 74.160156 13.519531 76.34375 14.09375 C 78.53125 14.671875 78.453125 15.402344 78.453125 15.402344 L 78.378906 27.539063 C 84.011719 10.90625 88.269531 13.519531 90.839844 14.785156 C 93.40625 16.054688 93.0625 17.898438 93.0625 17.898438 C 93.0625 17.898438 92.792969 27.039063 92.679688 30.269531 C 92.5625 33.496094 93.023438 34.761719 93.753906 34.878906 C 95.554688 35.300781 101.957031 22.929688 101.957031 22.929688 C 99.121094 19.855469 100.667969 16.105469 102.878906 14.480469 C 104.378906 13.375 106.214844 13.25 106.214844 13.25 C 106.214844 13.25 109.089844 13.097656 109.011719 15.515625 C 109.089844 18.167969 106.136719 21.394531 106.136719 21.394531 C 111.847656 25.464844 114.53125 27.617188 114.953125 30.765625 C 115.144531 32.277344 114.800781 33.226563 114.800781 33.226563 C 118.867188 29.691406 119.171875 25.734375 119.171875 25.734375 L 119.25 12.519531 L 113.230469 12.445313 C 113.230469 12.445313 112.769531 12.40625 112.691406 11.292969 C 112.691406 9.179688 113.804688 8.292969 113.804688 8.292969 L 119.554688 8.371094 C 119.554688 8.371094 119.746094 2.417969 119.785156 1.457031 C 119.976563 0.0742188 120.859375 -0.117188 123.390625 0.535156 C 125.921875 1.1875 125.921875 1.765625 125.921875 1.765625 L 125.613281 8.71875 C 125.613281 8.71875 131.941406 9.023438 132.78125 9.101563 C 133.628906 9.179688 133.894531 9.410156 133.703125 10.828125 C 133.511719 12.25 132.667969 12.597656 132.667969 12.597656 L 125.535156 12.75 L 125.039063 28.078125 C 125.039063 30.460938 125.152344 36.066406 127.378906 36.03125 C 130.484375 36.183594 132.324219 29.230469 132.324219 29.230469 L 132.359375 29.175781 C 132.324219 28.089844 132.347656 26.792969 132.5 25.332031 C 133.089844 19.746094 135.578125 13.199219 141.300781 13.199219 C 141.300781 13.199219 144.78125 13.074219 146.617188 16.550781 L 146.679688 15.285156 C 146.679688 15.285156 146.554688 13.769531 148.960938 14.148438 C 151.367188 14.527344 152.1875 15.476563 152.125 16.234375 C 152.125 16.234375 151.683594 25.964844 151.9375 31.714844 C 152.257813 35.054688 152.832031 37.03125 154.53125 36.894531 C 155.996094 36.683594 157.035156 34.679688 157.664063 32.972656 C 155.539063 15.28125 165.222656 13.132813 165.222656 13.132813 C 165.222656 13.132813 169.507813 12.820313 171.464844 16.394531 L 171.527344 15.203125 C 171.527344 15.203125 171.339844 13.636719 173.609375 14.074219 C 173.609375 14.074219 174.554688 14.199219 175.5625 14.578125 C 176.570313 14.953125 176.886719 15.203125 176.886719 16.144531 C 176.886719 17.085938 176.695313 33.617188 176.695313 33.617188 C 176.695313 33.617188 181.738281 26.84375 183 20.257813 C 183 20.257813 181.234375 18.941406 181.363281 17.0625 C 181.488281 15.179688 182.433594 12.921875 185.207031 12.921875 C 187.980469 12.921875 188.105469 15.367188 187.664063 17.0625 C 187.664063 17.0625 190 16.746094 192.015625 16.246094 C 194.035156 15.742188 196.746094 15.429688 196.933594 18.566406 C 197.058594 19.695313 196.554688 20.574219 196.554688 20.574219 C 196.554688 20.574219 194.980469 27.535156 195.230469 30.355469 C 195.484375 33.179688 196.238281 37.441406 198.445313 36.941406 C 200.652344 36.4375 201.410156 33.304688 201.410156 33.304688 C 201.410156 33.304688 200.523438 29.675781 200.96875 25.464844 C 201.554688 19.921875 204.035156 13.421875 209.730469 13.421875 C 209.730469 13.421875 213.199219 13.296875 215.027344 16.746094 L 215.089844 15.492188 C 215.089844 15.492188 214.964844 13.988281 217.359375 14.363281 C 219.753906 14.742188 220.574219 15.679688 220.511719 16.433594 C 220.511719 16.433594 220.070313 26.089844 220.324219 31.796875 C 220.644531 35.113281 221.214844 37.074219 222.90625 36.941406 C 224.539063 36.894531 225.914063 34.132813 226.765625 31.886719 L 226.757813 31.054688 L 226.8125 14.746094 C 226.945313 13.8125 227.789063 13.757813 227.789063 13.757813 L 229.746094 14.058594 C 232.488281 14.472656 232.109375 15.515625 232.109375 15.515625 L 232.109375 24.738281 C 234.148438 18.480469 235.128906 16.089844 236.050781 14.5 C 236.839844 13.140625 239.421875 14.03125 239.421875 14.03125 C 239.421875 14.03125 242.21875 14.773438 242.273438 17.355469 C 242.191406 21.609375 242.789063 28.542969 242.789063 28.542969 C 242.800781 28.652344 242.894531 28.683594 242.949219 28.636719 C 242.992188 28.597656 242.992188 28.484375 242.992188 28.484375 C 243.550781 24.023438 246.089844 16.703125 247.101563 14.800781 C 248.117188 12.898438 251.050781 14.25 251.050781 14.25 C 254.566406 15.460938 254.097656 17.546875 254.097656 17.546875 C 253.046875 35.445313 255.253906 36.617188 256.558594 36.726563 C 257.863281 36.835938 258.554688 35.152344 258.84375 34.347656 C 259.132813 33.542969 259.496094 31.785156 259.714844 31.089844 C 259.929688 30.394531 260.617188 30.355469 260.617188 30.355469 C 260.617188 30.355469 261.414063 30.539063 261.414063 31.199219 Z M 57.339844 4.011719 C 61.304688 0.121094 63.757813 0.00390625 63.757813 0.00390625 C 63.757813 0.00390625 64.53125 -0.109375 66.40625 0.546875 C 68.28125 1.203125 68.359375 2.210938 68.359375 2.210938 L 68.359375 30.667969 C 68.597656 38.628906 66.621094 41.691406 64.242188 43.820313 C 62.890625 44.917969 61.804688 45.058594 61.671875 45.058594 C 61.34375 45.058594 61.09375 45.019531 61.035156 44.574219 C 60.976563 44.132813 61.382813 42.96875 61.382813 42.96875 C 62.582031 39.933594 62.484375 34.671875 62.484375 34.671875 L 62.597656 4.011719 C 62.597656 4.011719 62.695313 3.449219 62.214844 3.625 C 57.535156 7.648438 56.957031 13.316406 56.800781 16.0625 C 56.722656 20.183594 58.511719 22.308594 58.511719 22.308594 C 58.511719 22.308594 58.972656 22.714844 58.917969 23.296875 C 58.917969 24.082031 58.191406 24.023438 58.191406 24.023438 C 56.433594 23.859375 53.628906 21.867188 52.625 19.464844 C 51.792969 17.695313 51.8125 15.78125 51.8125 15.78125 C 51.871094 13.371094 53.378906 7.898438 57.339844 4.011719 "/>
</g>
<path style=" stroke:none;fill-rule:nonzero;fill:rgb(21.568298%,34.901428%,53.72467%);fill-opacity:1;" d="M 39.753906 38.457031 C 39.753906 39.144531 39.195313 39.707031 38.503906 39.707031 L 6.363281 39.707031 C 5.671875 39.707031 5.113281 39.144531 5.113281 38.457031 L 5.113281 18.988281 L 9.300781 18.988281 C 8.988281 20.132813 8.816406 21.335938 8.816406 22.582031 C 8.816406 30.070313 14.925781 36.164063 22.433594 36.164063 C 29.941406 36.164063 36.050781 30.070313 36.050781 22.582031 C 36.050781 21.335938 35.882813 20.132813 35.566406 18.988281 L 39.753906 18.988281 Z M 22.433594 13.992188 C 27.1875 13.992188 31.042969 17.835938 31.042969 22.582031 C 31.042969 27.324219 27.1875 31.167969 22.433594 31.167969 C 17.679688 31.167969 13.824219 27.324219 13.824219 22.582031 C 13.824219 17.835938 17.679688 13.992188 22.433594 13.992188 Z M 31.09375 6.496094 C 31.09375 5.808594 31.65625 5.25 32.347656 5.25 L 38.398438 5.25 C 39.089844 5.25 39.652344 5.808594 39.652344 6.496094 L 39.652344 12.535156 C 39.652344 13.226563 39.089844 13.785156 38.398438 13.785156 L 32.347656 13.785156 C 31.65625 13.785156 31.09375 13.226563 31.09375 12.535156 Z M 39.441406 0.148438 L 5.320313 0.148438 C 2.382813 0.148438 0 2.523438 0 5.457031 L 0 39.601563 C 0 42.535156 2.382813 44.910156 5.320313 44.910156 L 39.441406 44.910156 C 42.382813 44.910156 44.765625 42.535156 44.765625 39.601563 L 44.765625 5.457031 C 44.765625 2.523438 42.382813 0.148438 39.441406 0.148438 "/>
</g>
</svg>
