<?xml version="1.0" encoding="UTF-8"?>
<svg xmlns="http://www.w3.org/2000/svg" xmlns:xlink="http://www.w3.org/1999/xlink" width="652pt" height="652pt" viewBox="0 0 652 652" version="1.1">
<g id="surface1">
<path style=" stroke:none;fill-rule:nonzero;fill:rgb(0%,0%,0%);fill-opacity:1;" d="M 588.597656 321.398438 L 597.699219 321.398438 L 597.699219 305 L 609.699219 305 L 609.699219 321.300781 L 620.5 321.300781 L 620.5 330.199219 L 609.699219 330.199219 L 609.699219 359.199219 C 609.699219 360.5 609.800781 361.5 609.902344 362.5 C 610 363.398438 610.300781 364.199219 610.597656 364.800781 C 611 365.398438 611.597656 365.898438 612.300781 366.199219 C 613.097656 366.5 614.097656 366.699219 615.5 366.699219 C 616.300781 366.699219 617.199219 366.699219 618 366.601563 C 618.800781 366.5 619.699219 366.398438 620.5 366.199219 L 620.5 375.5 C 619.199219 375.699219 617.902344 375.800781 616.597656 375.898438 C 615.300781 376.101563 614.097656 376.101563 612.699219 376.101563 C 609.5 376.101563 607 375.800781 605.097656 375.199219 C 603.199219 374.601563 601.699219 373.699219 600.597656 372.601563 C 599.5 371.398438 598.800781 370 598.402344 368.300781 C 598 366.601563 597.800781 364.5 597.699219 362.300781 L 597.699219 330.300781 L 588.597656 330.300781 L 588.597656 321.199219 Z M 557.597656 367.699219 C 560.199219 367.699219 562.597656 367.101563 564.5 366 C 566.5 364.898438 568 363.398438 569.300781 361.601563 C 570.597656 359.800781 571.5 357.699219 572.097656 355.5 C 572.699219 353.199219 573 350.898438 573 348.5 C 573 346.199219 572.699219 343.898438 572.097656 341.601563 C 571.5 339.300781 570.597656 337.300781 569.300781 335.5 C 568 333.699219 566.402344 332.300781 564.5 331.199219 C 562.5 330.101563 560.199219 329.5 557.597656 329.5 C 555 329.5 552.597656 330.101563 550.699219 331.199219 C 548.699219 332.300781 547.199219 333.800781 545.902344 335.5 C 544.597656 337.300781 543.699219 339.300781 543.097656 341.601563 C 542.5 343.898438 542.199219 346.199219 542.199219 348.5 C 542.199219 350.898438 542.5 353.199219 543.097656 355.5 C 543.699219 357.800781 544.597656 359.800781 545.902344 361.601563 C 547.199219 363.398438 548.800781 364.898438 550.699219 366 C 552.699219 367.199219 555 367.699219 557.597656 367.699219 M 557.597656 377.199219 C 553.300781 377.199219 549.402344 376.5 546 375 C 542.597656 373.5 539.800781 371.601563 537.402344 369.101563 C 535.097656 366.601563 533.300781 363.5 532.097656 360 C 530.902344 356.5 530.199219 352.601563 530.199219 348.5 C 530.199219 344.398438 530.800781 340.601563 532.097656 337.101563 C 533.300781 333.601563 535.097656 330.601563 537.402344 328 C 539.699219 325.5 542.597656 323.5 546 322.101563 C 549.402344 320.699219 553.300781 319.898438 557.597656 319.898438 C 561.902344 319.898438 565.800781 320.601563 569.199219 322.101563 C 572.597656 323.5 575.402344 325.5 577.800781 328 C 580.097656 330.5 581.902344 333.601563 583.097656 337.101563 C 584.300781 340.601563 585 344.398438 585 348.5 C 585 352.699219 584.402344 356.5 583.097656 360 C 581.800781 363.5 580.097656 366.5 577.800781 369.101563 C 575.5 371.601563 572.597656 373.601563 569.199219 375 C 565.800781 376.398438 562 377.199219 557.597656 377.199219 M 509 300.699219 L 521 300.699219 L 521 375.699219 L 509 375.699219 Z M 486.300781 321.398438 L 498.300781 321.398438 L 498.300781 375.699219 L 486.300781 375.699219 Z M 486.300781 300.699219 L 498.300781 300.699219 L 498.300781 312 L 486.300781 312 Z M 465.199219 348.601563 C 465.199219 346.199219 464.902344 343.800781 464.199219 341.5 C 463.597656 339.199219 462.597656 337.199219 461.300781 335.398438 C 460 333.601563 458.402344 332.199219 456.597656 331.101563 C 454.699219 330 452.5 329.5 450.097656 329.5 C 445.097656 329.5 441.300781 331.199219 438.699219 334.699219 C 436.199219 338.199219 434.902344 342.898438 434.902344 348.699219 C 434.902344 351.5 435.199219 354 435.902344 356.300781 C 436.597656 358.601563 437.5 360.601563 438.902344 362.300781 C 440.199219 364 441.800781 365.300781 443.699219 366.300781 C 445.597656 367.300781 447.699219 367.800781 450.199219 367.800781 C 453 367.800781 455.199219 367.199219 457.097656 366.101563 C 459 365 460.5 363.5 461.800781 361.800781 C 463 360 463.902344 358 464.402344 355.699219 C 464.902344 353.300781 465.199219 351 465.199219 348.601563 M 423.300781 321.398438 L 434.597656 321.398438 L 434.597656 328.800781 L 434.800781 328.800781 C 436.5 325.601563 438.800781 323.398438 441.800781 322 C 444.800781 320.601563 448 319.898438 451.597656 319.898438 C 455.902344 319.898438 459.597656 320.601563 462.800781 322.199219 C 466 323.699219 468.597656 325.699219 470.699219 328.398438 C 472.800781 331 474.402344 334.101563 475.402344 337.601563 C 476.402344 341.101563 477 344.898438 477 348.800781 C 477 352.5 476.5 356 475.597656 359.398438 C 474.597656 362.800781 473.199219 365.898438 471.300781 368.5 C 469.402344 371.101563 467 373.199219 464 374.800781 C 461 376.398438 457.597656 377.199219 453.597656 377.199219 C 451.902344 377.199219 450.097656 377 448.402344 376.699219 C 446.699219 376.398438 445 375.898438 443.402344 375.199219 C 441.800781 374.5 440.300781 373.601563 439 372.5 C 437.597656 371.398438 436.5 370.101563 435.597656 368.699219 L 435.402344 368.699219 L 435.402344 395.800781 L 423.402344 395.800781 L 423.402344 321.398438 Z M 383 321.398438 L 392.097656 321.398438 L 392.097656 305 L 404.097656 305 L 404.097656 321.300781 L 414.902344 321.300781 L 414.902344 330.199219 L 404.097656 330.199219 L 404.097656 359.199219 C 404.097656 360.5 404.199219 361.5 404.300781 362.5 C 404.402344 363.398438 404.699219 364.199219 405 364.800781 C 405.402344 365.398438 406 365.898438 406.699219 366.199219 C 407.5 366.5 408.5 366.699219 409.902344 366.699219 C 410.699219 366.699219 411.597656 366.699219 412.402344 366.601563 C 413.199219 366.5 414.097656 366.398438 414.902344 366.199219 L 414.902344 375.5 C 413.597656 375.699219 412.300781 375.800781 411 375.898438 C 409.699219 376.101563 408.5 376.101563 407.097656 376.101563 C 403.902344 376.101563 401.402344 375.800781 399.5 375.199219 C 397.597656 374.601563 396.097656 373.699219 395 372.601563 C 393.902344 371.398438 393.199219 370 392.800781 368.300781 C 392.402344 366.601563 392.199219 364.5 392.097656 362.300781 L 392.097656 330.300781 L 383 330.300781 L 383 321.199219 Z M 343.5 358.300781 C 343.902344 361.800781 345.199219 364.199219 347.5 365.699219 C 349.800781 367.101563 352.597656 367.800781 355.800781 367.800781 C 356.902344 367.800781 358.199219 367.699219 359.597656 367.5 C 361 367.300781 362.402344 367 363.597656 366.5 C 364.902344 366 365.902344 365.300781 366.699219 364.300781 C 367.5 363.300781 367.902344 362.101563 367.800781 360.601563 C 367.699219 359.101563 367.199219 357.800781 366.097656 356.800781 C 365 355.800781 363.699219 355.101563 362.097656 354.398438 C 360.5 353.800781 358.597656 353.300781 356.5 352.898438 C 354.402344 352.5 352.300781 352 350.097656 351.5 C 347.902344 351 345.699219 350.398438 343.597656 349.699219 C 341.5 349 339.699219 348.101563 338 346.800781 C 336.402344 345.601563 335 344.101563 334.097656 342.199219 C 333.097656 340.300781 332.597656 338.101563 332.597656 335.300781 C 332.597656 332.300781 333.300781 329.898438 334.800781 327.898438 C 336.199219 325.898438 338.097656 324.300781 340.300781 323.101563 C 342.5 321.898438 345 321 347.699219 320.5 C 350.402344 320 353 319.800781 355.402344 319.800781 C 358.199219 319.800781 360.902344 320.101563 363.402344 320.699219 C 365.902344 321.300781 368.300781 322.199219 370.300781 323.601563 C 372.402344 324.898438 374.097656 326.699219 375.402344 328.800781 C 376.800781 330.898438 377.597656 333.5 378 336.5 L 365.5 336.5 C 364.902344 333.601563 363.597656 331.699219 361.597656 330.699219 C 359.5 329.699219 357.199219 329.199219 354.5 329.199219 C 353.699219 329.199219 352.597656 329.300781 351.5 329.398438 C 350.300781 329.601563 349.300781 329.800781 348.199219 330.199219 C 347.199219 330.601563 346.300781 331.199219 345.597656 331.898438 C 344.902344 332.601563 344.5 333.601563 344.5 334.800781 C 344.5 336.300781 345 337.398438 346 338.300781 C 347 339.199219 348.300781 339.898438 350 340.601563 C 351.597656 341.199219 353.5 341.699219 355.597656 342.101563 C 357.699219 342.5 359.902344 343 362.097656 343.5 C 364.300781 344 366.402344 344.601563 368.5 345.300781 C 370.597656 346 372.5 346.898438 374.097656 348.199219 C 375.699219 349.398438 377.097656 350.898438 378.097656 352.699219 C 379.097656 354.5 379.597656 356.800781 379.597656 359.398438 C 379.597656 362.601563 378.902344 365.300781 377.402344 367.601563 C 375.902344 369.800781 374 371.699219 371.699219 373.101563 C 369.402344 374.5 366.699219 375.5 363.902344 376.199219 C 361 376.800781 358.199219 377.199219 355.402344 377.199219 C 352 377.199219 348.800781 376.800781 345.902344 376 C 343 375.199219 340.402344 374 338.300781 372.5 C 336.199219 370.898438 334.5 369 333.300781 366.601563 C 332.097656 364.300781 331.402344 361.5 331.300781 358.199219 L 343.402344 358.199219 L 343.402344 358.300781 Z M 323.097656 375.699219 L 311.300781 375.699219 L 311.300781 368.101563 L 311.097656 368.101563 C 309.597656 370.898438 307.398438 373 304.5 374.699219 C 301.597656 376.398438 298.597656 377.199219 295.597656 377.199219 C 288.5 377.199219 283.300781 375.5 280.097656 371.898438 C 276.898438 368.398438 275.300781 363 275.300781 355.898438 L 275.300781 321.398438 L 287.300781 321.398438 L 287.300781 354.699219 C 287.300781 359.5 288.199219 362.898438 290.097656 364.800781 C 291.898438 366.800781 294.5 367.800781 297.800781 367.800781 C 300.300781 367.800781 302.398438 367.398438 304.097656 366.601563 C 305.800781 365.800781 307.199219 364.800781 308.199219 363.5 C 309.300781 362.199219 310 360.601563 310.5 358.800781 C 311 357 311.199219 355 311.199219 352.898438 L 311.199219 321.398438 L 323.199219 321.398438 L 323.199219 375.699219 Z M 236.300781 321.398438 L 247.5 321.398438 L 247.5 331.898438 L 247.699219 331.898438 C 248.097656 330.398438 248.800781 329 249.800781 327.601563 C 250.800781 326.199219 252 324.898438 253.5 323.800781 C 254.898438 322.601563 256.5 321.699219 258.300781 321 C 260 320.300781 261.800781 319.898438 263.597656 319.898438 C 265 319.898438 266 320 266.5 320 C 267 320.101563 267.597656 320.199219 268.097656 320.199219 L 268.097656 331.699219 C 267.300781 331.5 266.398438 331.398438 265.5 331.300781 C 264.597656 331.199219 263.800781 331.101563 262.898438 331.101563 C 260.898438 331.101563 259 331.5 257.199219 332.300781 C 255.398438 333.101563 253.898438 334.300781 252.5 335.800781 C 251.199219 337.398438 250.097656 339.300781 249.300781 341.601563 C 248.5 343.898438 248.097656 346.601563 248.097656 349.601563 L 248.097656 375.398438 L 236.097656 375.398438 Z M 178.199219 300.699219 L 238.898438 300.699219 L 238.898438 312 L 215 312 L 215 375.699219 L 201.898438 375.699219 L 201.898438 312 L 178.097656 312 Z M 178.199219 300.699219 "/>
<path style=" stroke:none;fill-rule:nonzero;fill:rgb(0%,71.398926%,47.799683%);fill-opacity:1;" d="M 164.199219 300.699219 L 109.300781 300.699219 L 92.398438 248.5 L 75.398438 300.699219 L 20.5 300.601563 L 64.898438 332.898438 L 47.898438 385.097656 L 92.300781 352.800781 L 136.699219 385.097656 L 119.800781 332.898438 Z M 164.199219 300.699219 "/>
<path style=" stroke:none;fill-rule:nonzero;fill:rgb(0%,31.799316%,15.699768%);fill-opacity:1;" d="M 123.601563 344.699219 L 119.800781 332.898438 L 92.398438 352.800781 Z M 123.601563 344.699219 "/>
</g>
</svg>
